<svg width="95" height="26" viewBox="0 0 95 26" fill="none" xmlns="http://www.w3.org/2000/svg">
<mask id="path-1-outside-1_2_71" maskUnits="userSpaceOnUse" x="18.7809" y="5" width="76" height="16" fill="black">
<rect fill="white" x="18.7809" y="5" width="76" height="16"/>
<path d="M24.9209 20.24C23.9342 20.24 23.0675 20.06 22.3209 19.7C21.5875 19.34 21.0075 18.8267 20.5809 18.16C20.1675 17.4933 19.9542 16.7 19.9409 15.78H22.1809C22.1942 16.4867 22.4342 17.0933 22.9009 17.6C23.3809 18.0933 24.0475 18.34 24.9009 18.34C25.6875 18.34 26.3009 18.16 26.7409 17.8C27.1809 17.4267 27.4009 16.9467 27.4009 16.36C27.4009 15.8667 27.2675 15.46 27.0009 15.14C26.7475 14.8067 26.3475 14.5133 25.8009 14.26C25.2542 13.9933 24.5475 13.72 23.6809 13.44C22.5209 13.0667 21.6675 12.5533 21.1209 11.9C20.5742 11.2333 20.3009 10.42 20.3009 9.46C20.3009 8.35333 20.7009 7.46 21.5009 6.78C22.3009 6.1 23.4009 5.76 24.8009 5.76C26.1609 5.76 27.2542 6.11333 28.0809 6.82C28.9075 7.51333 29.3342 8.48 29.3609 9.72H27.1009C27.1009 9.38667 27.0075 9.06667 26.8209 8.76C26.6342 8.44 26.3675 8.18 26.0209 7.98C25.6742 7.76667 25.2475 7.66 24.7409 7.66C24.1142 7.64667 23.5875 7.8 23.1609 8.12C22.7342 8.42667 22.5209 8.84667 22.5209 9.38C22.5209 10.0333 22.7809 10.5467 23.3009 10.92C23.8209 11.28 24.6675 11.6533 25.8409 12.04C26.5742 12.28 27.2209 12.5733 27.7809 12.92C28.3542 13.2533 28.8009 13.6867 29.1209 14.22C29.4542 14.74 29.6209 15.4067 29.6209 16.22C29.6209 16.9667 29.4342 17.6467 29.0609 18.26C28.6875 18.86 28.1475 19.34 27.4409 19.7C26.7475 20.06 25.9075 20.24 24.9209 20.24ZM36.1931 20V6H40.9331C41.9997 6 42.8797 6.18667 43.5731 6.56C44.2664 6.92 44.7797 7.42 45.1131 8.06C45.4464 8.7 45.6131 9.43333 45.6131 10.26C45.6131 11.0867 45.4464 11.82 45.1131 12.46C44.7797 13.1 44.2664 13.6067 43.5731 13.98C42.8797 14.34 41.9997 14.52 40.9331 14.52H38.3131V20H36.1931ZM38.3131 12.62H40.8331C41.7397 12.62 42.3997 12.4067 42.8131 11.98C43.2397 11.5533 43.4531 10.98 43.4531 10.26C43.4531 9.55333 43.2397 8.98667 42.8131 8.56C42.3997 8.12 41.7397 7.9 40.8331 7.9H38.3131V12.62ZM56.7652 20.24C55.6319 20.24 54.6519 19.9467 53.8252 19.36C52.9986 18.7733 52.3652 17.94 51.9252 16.86C51.4852 15.78 51.2652 14.4933 51.2652 13C51.2652 11.5067 51.4852 10.22 51.9252 9.14C52.3652 8.06 52.9986 7.22667 53.8252 6.64C54.6519 6.05333 55.6319 5.76 56.7652 5.76C57.9119 5.76 58.8919 6.05333 59.7052 6.64C60.5319 7.22667 61.1652 8.06 61.6052 9.14C62.0452 10.22 62.2652 11.5067 62.2652 13C62.2652 14.4933 62.0452 15.78 61.6052 16.86C61.1652 17.94 60.5319 18.7733 59.7052 19.36C58.8919 19.9467 57.9119 20.24 56.7652 20.24ZM56.7652 18.24C57.7652 18.24 58.5719 17.7933 59.1852 16.9C59.7986 15.9933 60.1052 14.6933 60.1052 13C60.1052 11.3067 59.7986 10.0133 59.1852 9.12C58.5719 8.21333 57.7652 7.76 56.7652 7.76C55.7519 7.76 54.9386 8.21333 54.3252 9.12C53.7252 10.0133 53.4252 11.3067 53.4252 13C53.4252 14.6933 53.7252 15.9933 54.3252 16.9C54.9386 17.7933 55.7519 18.24 56.7652 18.24ZM71.6974 20V7.9H67.9374V6H77.5774V7.9H73.8174V20H71.6974ZM88.8896 20.24C87.903 20.24 87.0363 20.06 86.2896 19.7C85.5563 19.34 84.9763 18.8267 84.5496 18.16C84.1363 17.4933 83.923 16.7 83.9096 15.78H86.1496C86.163 16.4867 86.403 17.0933 86.8696 17.6C87.3496 18.0933 88.0163 18.34 88.8696 18.34C89.6563 18.34 90.2696 18.16 90.7096 17.8C91.1496 17.4267 91.3696 16.9467 91.3696 16.36C91.3696 15.8667 91.2363 15.46 90.9696 15.14C90.7163 14.8067 90.3163 14.5133 89.7696 14.26C89.223 13.9933 88.5163 13.72 87.6496 13.44C86.4896 13.0667 85.6363 12.5533 85.0896 11.9C84.543 11.2333 84.2696 10.42 84.2696 9.46C84.2696 8.35333 84.6696 7.46 85.4696 6.78C86.2696 6.1 87.3696 5.76 88.7696 5.76C90.1296 5.76 91.223 6.11333 92.0496 6.82C92.8763 7.51333 93.303 8.48 93.3296 9.72H91.0696C91.0696 9.38667 90.9763 9.06667 90.7896 8.76C90.603 8.44 90.3363 8.18 89.9896 7.98C89.643 7.76667 89.2163 7.66 88.7096 7.66C88.083 7.64667 87.5563 7.8 87.1296 8.12C86.703 8.42667 86.4896 8.84667 86.4896 9.38C86.4896 10.0333 86.7496 10.5467 87.2696 10.92C87.7896 11.28 88.6363 11.6533 89.8096 12.04C90.543 12.28 91.1896 12.5733 91.7496 12.92C92.323 13.2533 92.7696 13.6867 93.0896 14.22C93.423 14.74 93.5896 15.4067 93.5896 16.22C93.5896 16.9667 93.403 17.6467 93.0296 18.26C92.6563 18.86 92.1163 19.34 91.4096 19.7C90.7163 20.06 89.8763 20.24 88.8896 20.24Z"/>
</mask>
<path d="M24.9209 20.24C23.9342 20.24 23.0675 20.06 22.3209 19.7C21.5875 19.34 21.0075 18.8267 20.5809 18.16C20.1675 17.4933 19.9542 16.7 19.9409 15.78H22.1809C22.1942 16.4867 22.4342 17.0933 22.9009 17.6C23.3809 18.0933 24.0475 18.34 24.9009 18.34C25.6875 18.34 26.3009 18.16 26.7409 17.8C27.1809 17.4267 27.4009 16.9467 27.4009 16.36C27.4009 15.8667 27.2675 15.46 27.0009 15.14C26.7475 14.8067 26.3475 14.5133 25.8009 14.26C25.2542 13.9933 24.5475 13.72 23.6809 13.44C22.5209 13.0667 21.6675 12.5533 21.1209 11.9C20.5742 11.2333 20.3009 10.42 20.3009 9.46C20.3009 8.35333 20.7009 7.46 21.5009 6.78C22.3009 6.1 23.4009 5.76 24.8009 5.76C26.1609 5.76 27.2542 6.11333 28.0809 6.82C28.9075 7.51333 29.3342 8.48 29.3609 9.72H27.1009C27.1009 9.38667 27.0075 9.06667 26.8209 8.76C26.6342 8.44 26.3675 8.18 26.0209 7.98C25.6742 7.76667 25.2475 7.66 24.7409 7.66C24.1142 7.64667 23.5875 7.8 23.1609 8.12C22.7342 8.42667 22.5209 8.84667 22.5209 9.38C22.5209 10.0333 22.7809 10.5467 23.3009 10.92C23.8209 11.28 24.6675 11.6533 25.8409 12.04C26.5742 12.28 27.2209 12.5733 27.7809 12.92C28.3542 13.2533 28.8009 13.6867 29.1209 14.22C29.4542 14.74 29.6209 15.4067 29.6209 16.22C29.6209 16.9667 29.4342 17.6467 29.0609 18.26C28.6875 18.86 28.1475 19.34 27.4409 19.7C26.7475 20.06 25.9075 20.24 24.9209 20.24ZM36.1931 20V6H40.9331C41.9997 6 42.8797 6.18667 43.5731 6.56C44.2664 6.92 44.7797 7.42 45.1131 8.06C45.4464 8.7 45.6131 9.43333 45.6131 10.26C45.6131 11.0867 45.4464 11.82 45.1131 12.46C44.7797 13.1 44.2664 13.6067 43.5731 13.98C42.8797 14.34 41.9997 14.52 40.9331 14.52H38.3131V20H36.1931ZM38.3131 12.62H40.8331C41.7397 12.62 42.3997 12.4067 42.8131 11.98C43.2397 11.5533 43.4531 10.98 43.4531 10.26C43.4531 9.55333 43.2397 8.98667 42.8131 8.56C42.3997 8.12 41.7397 7.9 40.8331 7.9H38.3131V12.62ZM56.7652 20.24C55.6319 20.24 54.6519 19.9467 53.8252 19.36C52.9986 18.7733 52.3652 17.94 51.9252 16.86C51.4852 15.78 51.2652 14.4933 51.2652 13C51.2652 11.5067 51.4852 10.22 51.9252 9.14C52.3652 8.06 52.9986 7.22667 53.8252 6.64C54.6519 6.05333 55.6319 5.76 56.7652 5.76C57.9119 5.76 58.8919 6.05333 59.7052 6.64C60.5319 7.22667 61.1652 8.06 61.6052 9.14C62.0452 10.22 62.2652 11.5067 62.2652 13C62.2652 14.4933 62.0452 15.78 61.6052 16.86C61.1652 17.94 60.5319 18.7733 59.7052 19.36C58.8919 19.9467 57.9119 20.24 56.7652 20.24ZM56.7652 18.24C57.7652 18.24 58.5719 17.7933 59.1852 16.9C59.7986 15.9933 60.1052 14.6933 60.1052 13C60.1052 11.3067 59.7986 10.0133 59.1852 9.12C58.5719 8.21333 57.7652 7.76 56.7652 7.76C55.7519 7.76 54.9386 8.21333 54.3252 9.12C53.7252 10.0133 53.4252 11.3067 53.4252 13C53.4252 14.6933 53.7252 15.9933 54.3252 16.9C54.9386 17.7933 55.7519 18.24 56.7652 18.24ZM71.6974 20V7.9H67.9374V6H77.5774V7.9H73.8174V20H71.6974ZM88.8896 20.24C87.903 20.24 87.0363 20.06 86.2896 19.7C85.5563 19.34 84.9763 18.8267 84.5496 18.16C84.1363 17.4933 83.923 16.7 83.9096 15.78H86.1496C86.163 16.4867 86.403 17.0933 86.8696 17.6C87.3496 18.0933 88.0163 18.34 88.8696 18.34C89.6563 18.34 90.2696 18.16 90.7096 17.8C91.1496 17.4267 91.3696 16.9467 91.3696 16.36C91.3696 15.8667 91.2363 15.46 90.9696 15.14C90.7163 14.8067 90.3163 14.5133 89.7696 14.26C89.223 13.9933 88.5163 13.72 87.6496 13.44C86.4896 13.0667 85.6363 12.5533 85.0896 11.9C84.543 11.2333 84.2696 10.42 84.2696 9.46C84.2696 8.35333 84.6696 7.46 85.4696 6.78C86.2696 6.1 87.3696 5.76 88.7696 5.76C90.1296 5.76 91.223 6.11333 92.0496 6.82C92.8763 7.51333 93.303 8.48 93.3296 9.72H91.0696C91.0696 9.38667 90.9763 9.06667 90.7896 8.76C90.603 8.44 90.3363 8.18 89.9896 7.98C89.643 7.76667 89.2163 7.66 88.7096 7.66C88.083 7.64667 87.5563 7.8 87.1296 8.12C86.703 8.42667 86.4896 8.84667 86.4896 9.38C86.4896 10.0333 86.7496 10.5467 87.2696 10.92C87.7896 11.28 88.6363 11.6533 89.8096 12.04C90.543 12.28 91.1896 12.5733 91.7496 12.92C92.323 13.2533 92.7696 13.6867 93.0896 14.22C93.423 14.74 93.5896 15.4067 93.5896 16.22C93.5896 16.9667 93.403 17.6467 93.0296 18.26C92.6563 18.86 92.1163 19.34 91.4096 19.7C90.7163 20.06 89.8763 20.24 88.8896 20.24Z" fill="#212121"/>
<path d="M22.3209 19.7L22.2327 19.8795L22.234 19.8802L22.3209 19.7ZM20.5809 18.16L20.4109 18.2654L20.4124 18.2678L20.5809 18.16ZM19.9409 15.78V15.58H19.7379L19.7409 15.7829L19.9409 15.78ZM22.1809 15.78L22.3808 15.7762L22.3771 15.58H22.1809V15.78ZM22.9009 17.6L22.7537 17.7355L22.7575 17.7395L22.9009 17.6ZM26.7409 17.8L26.8675 17.9548L26.8703 17.9525L26.7409 17.8ZM27.0009 15.14L26.8415 15.2611L26.8472 15.268L27.0009 15.14ZM25.8009 14.26L25.7132 14.4398L25.7168 14.4415L25.8009 14.26ZM23.6809 13.44L23.7424 13.2497L23.7421 13.2496L23.6809 13.44ZM21.1209 11.9L20.9662 12.0268L20.9675 12.0283L21.1209 11.9ZM28.0809 6.82L27.9509 6.97203L27.9523 6.97324L28.0809 6.82ZM29.3609 9.72V9.92H29.5652L29.5608 9.7157L29.3609 9.72ZM27.1009 9.72H26.9009V9.92H27.1009V9.72ZM26.8209 8.76L26.6481 8.86079L26.65 8.86399L26.8209 8.76ZM26.0209 7.98L25.916 8.1504L25.9209 8.15324L26.0209 7.98ZM24.7409 7.66L24.7366 7.86H24.7409V7.66ZM23.1609 8.12L23.2776 8.28244L23.2809 8.28L23.1609 8.12ZM23.3009 10.92L23.1842 11.0825L23.187 11.0844L23.3009 10.92ZM25.8409 12.04L25.7783 12.23L25.7787 12.2301L25.8409 12.04ZM27.7809 12.92L27.6756 13.0901L27.6803 13.0929L27.7809 12.92ZM29.1209 14.22L28.9493 14.3229L28.9525 14.3279L29.1209 14.22ZM29.0609 18.26L29.2307 18.3657L29.2317 18.364L29.0609 18.26ZM27.4409 19.7L27.3501 19.5218L27.3487 19.5225L27.4409 19.7ZM24.9209 20.24V20.04C23.9586 20.04 23.1226 19.8645 22.4077 19.5198L22.3209 19.7L22.234 19.8802C23.0124 20.2555 23.9098 20.44 24.9209 20.44V20.24ZM22.3209 19.7L22.409 19.5205C21.7074 19.176 21.1556 18.687 20.7493 18.0522L20.5809 18.16L20.4124 18.2678C20.8594 18.9663 21.4677 19.504 22.2327 19.8795L22.3209 19.7ZM20.5809 18.16L20.7508 18.0546C20.3597 17.4237 20.1537 16.6672 20.1408 15.7771L19.9409 15.78L19.7409 15.7829C19.7547 16.7328 19.9754 17.5629 20.4109 18.2654L20.5809 18.16ZM19.9409 15.78V15.98H22.1809V15.78V15.58H19.9409V15.78ZM22.1809 15.78L21.9809 15.7838C21.9951 16.5379 22.253 17.1918 22.7538 17.7355L22.9009 17.6L23.048 17.4645C22.6154 16.9948 22.3933 16.4354 22.3808 15.7762L22.1809 15.78ZM22.9009 17.6L22.7575 17.7395C23.2838 18.2804 24.0073 18.54 24.9009 18.54V18.34V18.14C24.0878 18.14 23.4779 17.9063 23.0442 17.4605L22.9009 17.6ZM24.9009 18.34V18.54C25.7162 18.54 26.3802 18.3535 26.8675 17.9548L26.7409 17.8L26.6142 17.6452C26.2215 17.9665 25.6589 18.14 24.9009 18.14V18.34ZM26.7409 17.8L26.8703 17.9525C27.3559 17.5404 27.6009 17.0043 27.6009 16.36H27.4009H27.2009C27.2009 16.8891 27.0058 17.3129 26.6115 17.6475L26.7409 17.8ZM27.4009 16.36H27.6009C27.6009 15.8289 27.4564 15.3743 27.1545 15.012L27.0009 15.14L26.8472 15.268C27.0786 15.5457 27.2009 15.9044 27.2009 16.36H27.4009ZM27.0009 15.14L27.1601 15.019C26.8803 14.6508 26.4491 14.34 25.885 14.0785L25.8009 14.26L25.7168 14.4415C26.246 14.6867 26.6148 14.9626 26.8416 15.261L27.0009 15.14ZM25.8009 14.26L25.8886 14.0802C25.3304 13.808 24.614 13.5313 23.7424 13.2497L23.6809 13.44L23.6194 13.6303C24.481 13.9087 25.178 14.1787 25.7132 14.4398L25.8009 14.26ZM23.6809 13.44L23.7421 13.2496C22.6034 12.8831 21.7884 12.3861 21.2743 11.7717L21.1209 11.9L20.9675 12.0283C21.5467 12.7206 22.4384 13.2502 23.6196 13.6304L23.6809 13.44ZM21.1209 11.9L21.2755 11.7732C20.7615 11.1464 20.5009 10.3793 20.5009 9.46H20.3009H20.1009C20.1009 10.4607 20.3869 11.3203 20.9662 12.0268L21.1209 11.9ZM20.3009 9.46H20.5009C20.5009 8.40839 20.8778 7.5721 21.6304 6.93239L21.5009 6.78L21.3713 6.62761C20.5239 7.3479 20.1009 8.29828 20.1009 9.46H20.3009ZM21.5009 6.78L21.6304 6.93239C22.3837 6.29209 23.4324 5.96 24.8009 5.96V5.76V5.56C23.3694 5.56 22.218 5.90791 21.3713 6.62761L21.5009 6.78ZM24.8009 5.76V5.96C26.1255 5.96 27.1688 6.30348 27.9509 6.97202L28.0809 6.82L28.2108 6.66797C27.3396 5.92318 26.1962 5.56 24.8009 5.56V5.76ZM28.0809 6.82L27.9523 6.97324C28.728 7.62381 29.1353 8.53237 29.1609 9.7243L29.3609 9.72L29.5608 9.7157C29.5331 8.42763 29.087 7.40286 28.2094 6.66676L28.0809 6.82ZM29.3609 9.72V9.52H27.1009V9.72V9.92H29.3609V9.72ZM27.1009 9.72H27.3009C27.3009 9.34716 27.1959 8.9915 26.9917 8.65601L26.8209 8.76L26.65 8.86399C26.8191 9.14183 26.9009 9.42617 26.9009 9.72H27.1009ZM26.8209 8.76L26.9936 8.65923C26.788 8.30675 26.4951 8.02272 26.1208 7.80676L26.0209 7.98L25.9209 8.15324C26.2399 8.33728 26.4804 8.57325 26.6481 8.86077L26.8209 8.76ZM26.0209 7.98L26.1257 7.80967C25.7406 7.5727 25.2755 7.46 24.7409 7.46V7.66V7.86C25.2195 7.86 25.6078 7.96063 25.916 8.15033L26.0209 7.98ZM24.7409 7.66L24.7451 7.46004C24.0819 7.44593 23.5093 7.60864 23.0409 7.96L23.1609 8.12L23.2809 8.28C23.6657 7.99135 24.1465 7.8474 24.7366 7.85995L24.7409 7.66ZM23.1609 8.12L23.0441 7.9576C22.5643 8.3025 22.3209 8.78343 22.3209 9.38H22.5209H22.7209C22.7209 8.9099 22.9041 8.55083 23.2776 8.2824L23.1609 8.12ZM22.5209 9.38H22.3209C22.3209 10.0962 22.6106 10.6707 23.1842 11.0825L23.3009 10.92L23.4175 10.7575C22.9511 10.4227 22.7209 9.97049 22.7209 9.38H22.5209ZM23.3009 10.92L23.187 11.0844C23.7315 11.4614 24.6006 11.8418 25.7783 12.23L25.8409 12.04L25.9035 11.85C24.7345 11.4648 23.9103 11.0986 23.4147 10.7556L23.3009 10.92ZM25.8409 12.04L25.7787 12.2301C26.4994 12.466 27.1312 12.753 27.6756 13.0901L27.7809 12.92L27.8861 12.7499C27.3106 12.3936 26.649 12.094 25.9031 11.8499L25.8409 12.04ZM27.7809 12.92L27.6803 13.0929C28.2265 13.4104 28.6479 13.8204 28.9494 14.3229L29.1209 14.22L29.2924 14.1171C28.9538 13.5529 28.4819 13.0962 27.8814 12.7471L27.7809 12.92ZM29.1209 14.22L28.9525 14.3279C29.2596 14.807 29.4209 15.433 29.4209 16.22H29.6209H29.8209C29.8209 15.3803 29.6488 14.673 29.2892 14.1121L29.1209 14.22ZM29.6209 16.22H29.4209C29.4209 16.9315 29.2435 17.5753 28.89 18.156L29.0609 18.26L29.2317 18.364C29.6249 17.718 29.8209 17.0018 29.8209 16.22H29.6209ZM29.0609 18.26L28.8911 18.1543C28.5392 18.7198 28.0284 19.1763 27.3501 19.5218L27.4409 19.7L27.5317 19.8782C28.2667 19.5037 28.8358 19.0002 29.2307 18.3657L29.0609 18.26ZM27.4409 19.7L27.3487 19.5225C26.6904 19.8643 25.8837 20.04 24.9209 20.04V20.24V20.44C25.9314 20.44 26.8047 20.2557 27.533 19.8775L27.4409 19.7ZM36.1931 20H35.9931V20.2H36.1931V20ZM36.1931 6V5.8H35.9931V6H36.1931ZM43.5731 6.56L43.4782 6.73611L43.4809 6.7375L43.5731 6.56ZM45.1131 8.06L44.9357 8.15239L45.1131 8.06ZM45.1131 12.46L44.9357 12.3676L45.1131 12.46ZM43.5731 13.98L43.6652 14.1575L43.6679 14.1561L43.5731 13.98ZM38.3131 14.52V14.32H38.1131V14.52H38.3131ZM38.3131 20V20.2H38.5131V20H38.3131ZM38.3131 12.62H38.1131V12.82H38.3131V12.62ZM42.8131 11.98L42.6716 11.8386L42.6694 11.8408L42.8131 11.98ZM42.8131 8.56L42.6672 8.697L42.6716 8.70142L42.8131 8.56ZM38.3131 7.9V7.7H38.1131V7.9H38.3131ZM36.1931 20H36.3931V6H36.1931H35.9931V20H36.1931ZM36.1931 6V6.2H40.9331V6V5.8H36.1931V6ZM40.9331 6V6.2C41.9778 6.2 42.8225 6.38303 43.4782 6.73609L43.5731 6.56L43.6679 6.3839C42.9369 5.99031 42.0216 5.8 40.9331 5.8V6ZM43.5731 6.56L43.4809 6.7375C44.1409 7.0802 44.6229 7.55188 44.9357 8.15239L45.1131 8.06L45.2904 7.96761C44.9365 7.28811 44.3919 6.75979 43.6652 6.3825L43.5731 6.56ZM45.1131 8.06L44.9357 8.15239C45.2521 8.75995 45.4131 9.46078 45.4131 10.26H45.6131H45.8131C45.8131 9.40588 45.6407 8.64005 45.2904 7.96761L45.1131 8.06ZM45.6131 10.26H45.4131C45.4131 11.0592 45.2521 11.76 44.9357 12.3676L45.1131 12.46L45.2904 12.5524C45.6407 11.88 45.8131 11.1141 45.8131 10.26H45.6131ZM45.1131 12.46L44.9357 12.3676C44.6225 12.9688 44.1397 13.4478 43.4782 13.8039L43.5731 13.98L43.6679 14.1561C44.3931 13.7656 44.9369 13.2312 45.2904 12.5524L45.1131 12.46ZM43.5731 13.98L43.4809 13.8025C42.8245 14.1433 41.9788 14.32 40.9331 14.32V14.52V14.72C42.0207 14.72 42.9349 14.5367 43.6652 14.1575L43.5731 13.98ZM40.9331 14.52V14.32H38.3131V14.52V14.72H40.9331V14.52ZM38.3131 14.52H38.1131V20H38.3131H38.5131V14.52H38.3131ZM38.3131 20V19.8H36.1931V20V20.2H38.3131V20ZM38.3131 12.62V12.82H40.8331V12.62V12.42H38.3131V12.62ZM40.8331 12.62V12.82C41.7658 12.82 42.4898 12.6011 42.9567 12.1192L42.8131 11.98L42.6694 11.8408C42.3096 12.2122 41.7137 12.42 40.8331 12.42V12.62ZM42.8131 11.98L42.9545 12.1214C43.4258 11.6501 43.6531 11.0221 43.6531 10.26H43.4531H43.2531C43.2531 10.9379 43.0537 11.4565 42.6716 11.8386L42.8131 11.98ZM43.4531 10.26H43.6531C43.6531 9.51008 43.425 8.88915 42.9545 8.41858L42.8131 8.56L42.6716 8.70142C43.0544 9.08418 43.2531 9.59659 43.2531 10.26H43.4531ZM42.8131 8.56L42.9588 8.42306C42.4922 7.92635 41.7673 7.7 40.8331 7.7V7.9V8.1C41.7121 8.1 42.3072 8.31365 42.6673 8.69693L42.8131 8.56ZM40.8331 7.9V7.7H38.3131V7.9V8.1H40.8331V7.9ZM38.3131 7.9H38.1131V12.62H38.3131H38.5131V7.9H38.3131ZM53.8252 19.36L53.941 19.1969L53.8252 19.36ZM51.9252 16.86L51.74 16.9355L51.9252 16.86ZM51.9252 9.14L51.74 9.06454L51.9252 9.14ZM53.8252 6.64L53.7095 6.4769L53.8252 6.64ZM59.7052 6.64L59.5882 6.80221L59.5895 6.8031L59.7052 6.64ZM61.6052 9.14L61.7905 9.06454L61.6052 9.14ZM61.6052 16.86L61.7905 16.9355L61.6052 16.86ZM59.7052 19.36L59.5895 19.1969L59.5882 19.1978L59.7052 19.36ZM59.1852 16.9L59.3501 17.0132L59.3509 17.0121L59.1852 16.9ZM59.1852 9.12L59.0196 9.23206L59.0204 9.2332L59.1852 9.12ZM54.3252 9.12L54.1596 9.00794L54.1592 9.00849L54.3252 9.12ZM54.3252 16.9L54.1584 17.0104L54.1604 17.0132L54.3252 16.9ZM56.7652 20.24V20.04C55.6683 20.04 54.7299 19.7568 53.941 19.1969L53.8252 19.36L53.7095 19.5231C54.5739 20.1366 55.5955 20.44 56.7652 20.44V20.24ZM53.8252 19.36L53.941 19.1969C53.1498 18.6354 52.5383 17.8347 52.1105 16.7845L51.9252 16.86L51.74 16.9355C52.1922 18.0453 52.8474 18.9113 53.7095 19.5231L53.8252 19.36ZM51.9252 16.86L52.1105 16.7845C51.6825 15.7342 51.4652 14.4744 51.4652 13H51.2652H51.0652C51.0652 14.5123 51.2879 15.8258 51.74 16.9355L51.9252 16.86ZM51.2652 13H51.4652C51.4652 11.5256 51.6825 10.2658 52.1105 9.21546L51.9252 9.14L51.74 9.06454C51.2879 10.1742 51.0652 11.4877 51.0652 13H51.2652ZM51.9252 9.14L52.1105 9.21546C52.5383 8.16526 53.1498 7.36459 53.941 6.8031L53.8252 6.64L53.7095 6.4769C52.8474 7.08874 52.1922 7.95474 51.74 9.06454L51.9252 9.14ZM53.8252 6.64L53.941 6.8031C54.7299 6.24324 55.6683 5.96 56.7652 5.96V5.76V5.56C55.5955 5.56 54.5739 5.86343 53.7095 6.4769L53.8252 6.64ZM56.7652 5.76V5.96C57.8762 5.96 58.8137 6.24353 59.5882 6.80221L59.7052 6.64L59.8222 6.47779C58.9701 5.86313 57.9477 5.56 56.7652 5.56V5.76ZM59.7052 6.64L59.5895 6.8031C60.3807 7.36459 60.9922 8.16526 61.42 9.21546L61.6052 9.14L61.7905 9.06454C61.3383 7.95474 60.6831 7.08874 59.821 6.4769L59.7052 6.64ZM61.6052 9.14L61.42 9.21546C61.8479 10.2658 62.0652 11.5256 62.0652 13H62.2652H62.4652C62.4652 11.4877 62.2425 10.1742 61.7905 9.06454L61.6052 9.14ZM62.2652 13H62.0652C62.0652 14.4744 61.8479 15.7342 61.42 16.7845L61.6052 16.86L61.7905 16.9355C62.2425 15.8258 62.4652 14.5123 62.4652 13H62.2652ZM61.6052 16.86L61.42 16.7845C60.9922 17.8347 60.3807 18.6354 59.5895 19.1969L59.7052 19.36L59.821 19.5231C60.6831 18.9113 61.3383 18.0453 61.7905 16.9355L61.6052 16.86ZM59.7052 19.36L59.5882 19.1978C58.8137 19.7565 57.8762 20.04 56.7652 20.04V20.24V20.44C57.9477 20.44 58.9701 20.1369 59.8222 19.5222L59.7052 19.36ZM56.7652 18.24V18.44C57.8374 18.44 58.7032 17.9555 59.3501 17.0132L59.1852 16.9L59.0204 16.7868C58.4407 17.6312 57.6931 18.04 56.7652 18.04V18.24ZM59.1852 16.9L59.3509 17.0121C59.9958 16.0588 60.3052 14.713 60.3052 13H60.1052H59.9052C59.9052 14.6737 59.6014 15.9279 59.0196 16.7879L59.1852 16.9ZM60.1052 13H60.3052C60.3052 11.2873 59.9959 9.94738 59.3501 9.0068L59.1852 9.12L59.0204 9.2332C59.6013 10.0793 59.9052 11.326 59.9052 13H60.1052ZM59.1852 9.12L59.3509 9.00794C58.7045 8.05241 57.8387 7.56 56.7652 7.56V7.76V7.96C57.6918 7.96 58.4393 8.37426 59.0196 9.23206L59.1852 9.12ZM56.7652 7.76V7.56C55.6795 7.56 54.8066 8.0515 54.1596 9.00794L54.3252 9.12L54.4909 9.23206C55.0706 8.37517 55.8244 7.96 56.7652 7.96V7.76ZM54.3252 9.12L54.1592 9.00849C53.5277 9.94872 53.2252 11.2879 53.2252 13H53.4252H53.6252C53.6252 11.3254 53.9228 10.0779 54.4913 9.23151L54.3252 9.12ZM53.4252 13H53.2252C53.2252 14.7124 53.5278 16.0574 54.1585 17.0104L54.3252 16.9L54.492 16.7896C53.9227 15.9292 53.6252 14.6743 53.6252 13H53.4252ZM54.3252 16.9L54.1604 17.0132C54.8079 17.9564 55.6808 18.44 56.7652 18.44V18.24V18.04C55.823 18.04 55.0692 17.6303 54.4901 16.7868L54.3252 16.9ZM71.6974 20H71.4974V20.2H71.6974V20ZM71.6974 7.9H71.8974V7.7H71.6974V7.9ZM67.9374 7.9H67.7374V8.1H67.9374V7.9ZM67.9374 6V5.8H67.7374V6H67.9374ZM77.5774 6H77.7774V5.8H77.5774V6ZM77.5774 7.9V8.1H77.7774V7.9H77.5774ZM73.8174 7.9V7.7H73.6174V7.9H73.8174ZM73.8174 20V20.2H74.0174V20H73.8174ZM71.6974 20H71.8974V7.9H71.6974H71.4974V20H71.6974ZM71.6974 7.9V7.7H67.9374V7.9V8.1H71.6974V7.9ZM67.9374 7.9H68.1374V6H67.9374H67.7374V7.9H67.9374ZM67.9374 6V6.2H77.5774V6V5.8H67.9374V6ZM77.5774 6H77.3774V7.9H77.5774H77.7774V6H77.5774ZM77.5774 7.9V7.7H73.8174V7.9V8.1H77.5774V7.9ZM73.8174 7.9H73.6174V20H73.8174H74.0174V7.9H73.8174ZM73.8174 20V19.8H71.6974V20V20.2H73.8174V20ZM86.2896 19.7L86.2015 19.8795L86.2028 19.8802L86.2896 19.7ZM84.5496 18.16L84.3796 18.2654L84.3812 18.2678L84.5496 18.16ZM83.9096 15.78V15.58H83.7067L83.7096 15.7829L83.9096 15.78ZM86.1496 15.78L86.3496 15.7762L86.3459 15.58H86.1496V15.78ZM86.8696 17.6L86.7225 17.7355L86.7263 17.7395L86.8696 17.6ZM90.7096 17.8L90.8363 17.9548L90.839 17.9525L90.7096 17.8ZM90.9696 15.14L90.8102 15.2611L90.816 15.268L90.9696 15.14ZM89.7696 14.26L89.6819 14.4398L89.6855 14.4415L89.7696 14.26ZM87.6496 13.44L87.7111 13.2497L87.7109 13.2496L87.6496 13.44ZM85.0896 11.9L84.935 12.0268L84.9362 12.0283L85.0896 11.9ZM92.0496 6.82L91.9197 6.97203L91.9211 6.97324L92.0496 6.82ZM93.3296 9.72V9.92H93.534L93.5296 9.7157L93.3296 9.72ZM91.0696 9.72H90.8696V9.92H91.0696V9.72ZM90.7896 8.76L90.6168 8.86079L90.6188 8.86399L90.7896 8.76ZM89.9896 7.98L89.8848 8.1504L89.8897 8.15324L89.9896 7.98ZM88.7096 7.66L88.7054 7.86H88.7096V7.66ZM87.1296 8.12L87.2464 8.28244L87.2496 8.28L87.1296 8.12ZM87.2696 10.92L87.153 11.0825L87.1558 11.0844L87.2696 10.92ZM89.8096 12.04L89.747 12.23L89.7474 12.2301L89.8096 12.04ZM91.7496 12.92L91.6443 13.0901L91.6491 13.0929L91.7496 12.92ZM93.0896 14.22L92.918 14.3229L92.9212 14.3279L93.0896 14.22ZM93.0296 18.26L93.1994 18.3657L93.2005 18.364L93.0296 18.26ZM91.4096 19.7L91.3188 19.5218L91.3175 19.5225L91.4096 19.7ZM88.8896 20.24V20.04C87.9274 20.04 87.0914 19.8645 86.3765 19.5198L86.2896 19.7L86.2028 19.8802C86.9812 20.2555 87.8785 20.44 88.8896 20.44V20.24ZM86.2896 19.7L86.3778 19.5205C85.6761 19.176 85.1244 18.687 84.7181 18.0522L84.5496 18.16L84.3812 18.2678C84.8282 18.9663 85.4364 19.504 86.2015 19.8795L86.2896 19.7ZM84.5496 18.16L84.7196 18.0546C84.3285 17.4237 84.1225 16.6672 84.1096 15.7771L83.9096 15.78L83.7096 15.7829C83.7234 16.7328 83.9441 17.5629 84.3796 18.2654L84.5496 18.16ZM83.9096 15.78V15.98H86.1496V15.78V15.58H83.9096V15.78ZM86.1496 15.78L85.9497 15.7838C85.9639 16.5379 86.2218 17.1918 86.7225 17.7355L86.8696 17.6L87.0167 17.4645C86.5841 16.9948 86.362 16.4354 86.3496 15.7762L86.1496 15.78ZM86.8696 17.6L86.7263 17.7395C87.2526 18.2804 87.9761 18.54 88.8696 18.54V18.34V18.14C88.0565 18.14 87.4467 17.9063 87.013 17.4605L86.8696 17.6ZM88.8696 18.34V18.54C89.6849 18.54 90.349 18.3535 90.8363 17.9548L90.7096 17.8L90.583 17.6452C90.1903 17.9665 89.6277 18.14 88.8696 18.14V18.34ZM90.7096 17.8L90.839 17.9525C91.3247 17.5404 91.5696 17.0043 91.5696 16.36H91.3696H91.1696C91.1696 16.8891 90.9746 17.3129 90.5802 17.6475L90.7096 17.8ZM91.3696 16.36H91.5696C91.5696 15.8289 91.4252 15.3743 91.1233 15.012L90.9696 15.14L90.816 15.268C91.0474 15.5457 91.1696 15.9044 91.1696 16.36H91.3696ZM90.9696 15.14L91.1289 15.019C90.849 14.6508 90.4178 14.34 89.8537 14.0785L89.7696 14.26L89.6855 14.4415C90.2147 14.6867 90.5836 14.9626 90.8104 15.261L90.9696 15.14ZM89.7696 14.26L89.8573 14.0802C89.2991 13.808 88.5828 13.5313 87.7111 13.2497L87.6496 13.44L87.5881 13.6303C88.4498 13.9087 89.1468 14.1787 89.6819 14.4398L89.7696 14.26ZM87.6496 13.44L87.7109 13.2496C86.5721 12.8831 85.7571 12.3861 85.243 11.7717L85.0896 11.9L84.9362 12.0283C85.5154 12.7206 86.4071 13.2502 87.5883 13.6304L87.6496 13.44ZM85.0896 11.9L85.2443 11.7732C84.7303 11.1464 84.4696 10.3793 84.4696 9.46H84.2696H84.0696C84.0696 10.4607 84.3556 11.3203 84.935 12.0268L85.0896 11.9ZM84.2696 9.46H84.4696C84.4696 8.40839 84.8465 7.5721 85.5992 6.93239L85.4696 6.78L85.3401 6.62761C84.4927 7.3479 84.0696 8.29828 84.0696 9.46H84.2696ZM85.4696 6.78L85.5992 6.93239C86.3524 6.29209 87.4011 5.96 88.7696 5.96V5.76V5.56C87.3381 5.56 86.1868 5.90791 85.3401 6.62761L85.4696 6.78ZM88.7696 5.76V5.96C90.0943 5.96 91.1376 6.30348 91.9197 6.97202L92.0496 6.82L92.1796 6.66797C91.3083 5.92318 90.1649 5.56 88.7696 5.56V5.76ZM92.0496 6.82L91.9211 6.97324C92.6968 7.62381 93.104 8.53237 93.1297 9.7243L93.3296 9.72L93.5296 9.7157C93.5019 8.42763 93.0558 7.40286 92.1781 6.66676L92.0496 6.82ZM93.3296 9.72V9.52H91.0696V9.72V9.92H93.3296V9.72ZM91.0696 9.72H91.2696C91.2696 9.34716 91.1647 8.9915 90.9605 8.65601L90.7896 8.76L90.6188 8.86399C90.7879 9.14183 90.8696 9.42617 90.8696 9.72H91.0696ZM90.7896 8.76L90.9624 8.65923C90.7568 8.30675 90.4639 8.02272 90.0896 7.80676L89.9896 7.98L89.8897 8.15324C90.2087 8.33728 90.4491 8.57325 90.6169 8.86077L90.7896 8.76ZM89.9896 7.98L90.0944 7.80967C89.7094 7.5727 89.2443 7.46 88.7096 7.46V7.66V7.86C89.1883 7.86 89.5765 7.96063 89.8848 8.15033L89.9896 7.98ZM88.7096 7.66L88.7139 7.46004C88.0506 7.44593 87.4781 7.60864 87.0096 7.96L87.1296 8.12L87.2496 8.28C87.6345 7.99135 88.1153 7.8474 88.7054 7.85995L88.7096 7.66ZM87.1296 8.12L87.0129 7.9576C86.533 8.3025 86.2896 8.78343 86.2896 9.38H86.4896H86.6896C86.6896 8.9099 86.8729 8.55083 87.2463 8.2824L87.1296 8.12ZM86.4896 9.38H86.2896C86.2896 10.0962 86.5794 10.6707 87.153 11.0825L87.2696 10.92L87.3863 10.7575C86.9199 10.4227 86.6896 9.97049 86.6896 9.38H86.4896ZM87.2696 10.92L87.1558 11.0844C87.7002 11.4614 88.5693 11.8418 89.747 12.23L89.8096 12.04L89.8722 11.85C88.7032 11.4648 87.879 11.0986 87.3835 10.7556L87.2696 10.92ZM89.8096 12.04L89.7474 12.2301C90.4682 12.466 91.0999 12.753 91.6443 13.0901L91.7496 12.92L91.8549 12.7499C91.2793 12.3936 90.6178 12.094 89.8718 11.8499L89.8096 12.04ZM91.7496 12.92L91.6491 13.0929C92.1952 13.4104 92.6166 13.8204 92.9181 14.3229L93.0896 14.22L93.2611 14.1171C92.9226 13.5529 92.4507 13.0962 91.8501 12.7471L91.7496 12.92ZM93.0896 14.22L92.9212 14.3279C93.2283 14.807 93.3896 15.433 93.3896 16.22H93.5896H93.7896C93.7896 15.3803 93.6176 14.673 93.258 14.1121L93.0896 14.22ZM93.5896 16.22H93.3896C93.3896 16.9315 93.2123 17.5753 92.8588 18.156L93.0296 18.26L93.2005 18.364C93.5936 17.718 93.7896 17.0018 93.7896 16.22H93.5896ZM93.0296 18.26L92.8598 18.1543C92.508 18.7198 91.9971 19.1763 91.3188 19.5218L91.4096 19.7L91.5004 19.8782C92.2355 19.5037 92.8046 19.0002 93.1994 18.3657L93.0296 18.26ZM91.4096 19.7L91.3175 19.5225C90.6591 19.8643 89.8524 20.04 88.8896 20.04V20.24V20.44C89.9001 20.44 90.7735 20.2557 91.5018 19.8775L91.4096 19.7Z" fill="#212121" mask="url(#path-1-outside-1_2_71)"/>
<path d="M5.78087 4L5.78087 12" stroke="#212121" stroke-width="2.5"/>
<path d="M0.780869 9L5.78087 13L10.7809 9" stroke="#212121" stroke-width="2.5" stroke-linejoin="bevel"/>
<circle cx="5.78087" cy="18" r="2" fill="#212121"/>
</svg>
